<mxfile host="Electron" modified="2023-12-21T23:12:24.035Z" agent="Mozilla/5.0 (Windows NT 10.0; Win64; x64) AppleWebKit/537.36 (KHTML, like Gecko) draw.io/22.1.2 Chrome/114.0.5735.289 Electron/25.9.4 Safari/537.36" etag="6MeL7iV-gjEka1gSeJqy" version="22.1.2" type="device">
  <diagram name="Page-1" id="09ULYHuq6lumoVjFBD1P">
    <mxGraphModel dx="2501" dy="836" grid="1" gridSize="10" guides="1" tooltips="1" connect="1" arrows="1" fold="1" page="1" pageScale="1" pageWidth="827" pageHeight="1169" math="0" shadow="0">
      <root>
        <mxCell id="0" />
        <mxCell id="1" parent="0" />
        <mxCell id="3TedK7BczHDGdvZgG1oG-1" value="Cadeaux" style="swimlane;fontStyle=2;align=center;verticalAlign=top;childLayout=stackLayout;horizontal=1;startSize=26;horizontalStack=0;resizeParent=1;resizeLast=0;collapsible=1;marginBottom=0;rounded=0;shadow=0;strokeWidth=1;" parent="1" vertex="1">
          <mxGeometry x="-90" y="397.5" width="160" height="216" as="geometry">
            <mxRectangle x="230" y="140" width="160" height="26" as="alternateBounds" />
          </mxGeometry>
        </mxCell>
        <mxCell id="3TedK7BczHDGdvZgG1oG-2" value="id_cadeaux" style="text;align=left;verticalAlign=top;spacingLeft=4;spacingRight=4;overflow=hidden;rotatable=0;points=[[0,0.5],[1,0.5]];portConstraint=eastwest;" parent="3TedK7BczHDGdvZgG1oG-1" vertex="1">
          <mxGeometry y="26" width="160" height="26" as="geometry" />
        </mxCell>
        <mxCell id="3TedK7BczHDGdvZgG1oG-3" value="id_liste" style="text;align=left;verticalAlign=top;spacingLeft=4;spacingRight=4;overflow=hidden;rotatable=0;points=[[0,0.5],[1,0.5]];portConstraint=eastwest;" parent="3TedK7BczHDGdvZgG1oG-1" vertex="1">
          <mxGeometry y="52" width="160" height="26" as="geometry" />
        </mxCell>
        <mxCell id="3TedK7BczHDGdvZgG1oG-4" value="nom" style="text;align=left;verticalAlign=top;spacingLeft=4;spacingRight=4;overflow=hidden;rotatable=0;points=[[0,0.5],[1,0.5]];portConstraint=eastwest;rounded=0;shadow=0;html=0;" parent="3TedK7BczHDGdvZgG1oG-1" vertex="1">
          <mxGeometry y="78" width="160" height="26" as="geometry" />
        </mxCell>
        <mxCell id="3TedK7BczHDGdvZgG1oG-5" value="description" style="text;align=left;verticalAlign=top;spacingLeft=4;spacingRight=4;overflow=hidden;rotatable=0;points=[[0,0.5],[1,0.5]];portConstraint=eastwest;rounded=0;shadow=0;html=0;" parent="3TedK7BczHDGdvZgG1oG-1" vertex="1">
          <mxGeometry y="104" width="160" height="26" as="geometry" />
        </mxCell>
        <mxCell id="3TedK7BczHDGdvZgG1oG-6" value="prix" style="text;align=left;verticalAlign=top;spacingLeft=4;spacingRight=4;overflow=hidden;rotatable=0;points=[[0,0.5],[1,0.5]];portConstraint=eastwest;rounded=0;shadow=0;html=0;" parent="3TedK7BczHDGdvZgG1oG-1" vertex="1">
          <mxGeometry y="130" width="160" height="26" as="geometry" />
        </mxCell>
        <mxCell id="3TedK7BczHDGdvZgG1oG-7" value="URL Image" style="text;align=left;verticalAlign=top;spacingLeft=4;spacingRight=4;overflow=hidden;rotatable=0;points=[[0,0.5],[1,0.5]];portConstraint=eastwest;rounded=0;shadow=0;html=0;" parent="3TedK7BczHDGdvZgG1oG-1" vertex="1">
          <mxGeometry y="156" width="160" height="26" as="geometry" />
        </mxCell>
        <mxCell id="3TedK7BczHDGdvZgG1oG-8" value="" style="line;html=1;strokeWidth=1;align=left;verticalAlign=middle;spacingTop=-1;spacingLeft=3;spacingRight=3;rotatable=0;labelPosition=right;points=[];portConstraint=eastwest;" parent="3TedK7BczHDGdvZgG1oG-1" vertex="1">
          <mxGeometry y="182" width="160" height="8" as="geometry" />
        </mxCell>
        <mxCell id="3TedK7BczHDGdvZgG1oG-9" value="Auteur" style="swimlane;fontStyle=0;align=center;verticalAlign=top;childLayout=stackLayout;horizontal=1;startSize=26;horizontalStack=0;resizeParent=1;resizeLast=0;collapsible=1;marginBottom=0;rounded=0;shadow=0;strokeWidth=1;" parent="1" vertex="1">
          <mxGeometry x="-560" y="170" width="160" height="120" as="geometry">
            <mxRectangle x="550" y="140" width="160" height="26" as="alternateBounds" />
          </mxGeometry>
        </mxCell>
        <mxCell id="3TedK7BczHDGdvZgG1oG-10" value="id_auteur" style="text;align=left;verticalAlign=top;spacingLeft=4;spacingRight=4;overflow=hidden;rotatable=0;points=[[0,0.5],[1,0.5]];portConstraint=eastwest;" parent="3TedK7BczHDGdvZgG1oG-9" vertex="1">
          <mxGeometry y="26" width="160" height="26" as="geometry" />
        </mxCell>
        <mxCell id="3TedK7BczHDGdvZgG1oG-11" value="nom" style="text;align=left;verticalAlign=top;spacingLeft=4;spacingRight=4;overflow=hidden;rotatable=0;points=[[0,0.5],[1,0.5]];portConstraint=eastwest;rounded=0;shadow=0;html=0;" parent="3TedK7BczHDGdvZgG1oG-9" vertex="1">
          <mxGeometry y="52" width="160" height="26" as="geometry" />
        </mxCell>
        <mxCell id="3TedK7BczHDGdvZgG1oG-13" value="" style="line;html=1;strokeWidth=1;align=left;verticalAlign=middle;spacingTop=-1;spacingLeft=3;spacingRight=3;rotatable=0;labelPosition=right;points=[];portConstraint=eastwest;" parent="3TedK7BczHDGdvZgG1oG-9" vertex="1">
          <mxGeometry y="78" width="160" height="24" as="geometry" />
        </mxCell>
        <mxCell id="3TedK7BczHDGdvZgG1oG-14" value="Liste cadeaux" style="swimlane;fontStyle=2;align=center;verticalAlign=top;childLayout=stackLayout;horizontal=1;startSize=26;horizontalStack=0;resizeParent=1;resizeLast=0;collapsible=1;marginBottom=0;rounded=0;shadow=0;strokeWidth=1;" parent="1" vertex="1">
          <mxGeometry x="-300" y="277.5" width="155" height="157.5" as="geometry">
            <mxRectangle x="230" y="140" width="160" height="26" as="alternateBounds" />
          </mxGeometry>
        </mxCell>
        <mxCell id="3TedK7BczHDGdvZgG1oG-15" value="id_liste" style="text;align=left;verticalAlign=top;spacingLeft=4;spacingRight=4;overflow=hidden;rotatable=0;points=[[0,0.5],[1,0.5]];portConstraint=eastwest;" parent="3TedK7BczHDGdvZgG1oG-14" vertex="1">
          <mxGeometry y="26" width="155" height="24" as="geometry" />
        </mxCell>
        <mxCell id="3TedK7BczHDGdvZgG1oG-16" value="id_autheur" style="text;align=left;verticalAlign=top;spacingLeft=4;spacingRight=4;overflow=hidden;rotatable=0;points=[[0,0.5],[1,0.5]];portConstraint=eastwest;" parent="3TedK7BczHDGdvZgG1oG-14" vertex="1">
          <mxGeometry y="50" width="155" height="24" as="geometry" />
        </mxCell>
        <mxCell id="1K9YoreH4JCy90YGOB09-1" value="nom" style="text;align=left;verticalAlign=top;spacingLeft=4;spacingRight=4;overflow=hidden;rotatable=0;points=[[0,0.5],[1,0.5]];portConstraint=eastwest;" vertex="1" parent="3TedK7BczHDGdvZgG1oG-14">
          <mxGeometry y="74" width="155" height="24" as="geometry" />
        </mxCell>
        <mxCell id="3TedK7BczHDGdvZgG1oG-17" value="Date Limite de reservation" style="text;align=left;verticalAlign=top;spacingLeft=4;spacingRight=4;overflow=hidden;rotatable=0;points=[[0,0.5],[1,0.5]];portConstraint=eastwest;" parent="3TedK7BczHDGdvZgG1oG-14" vertex="1">
          <mxGeometry y="98" width="155" height="24" as="geometry" />
        </mxCell>
        <mxCell id="3TedK7BczHDGdvZgG1oG-18" value="" style="line;html=1;strokeWidth=1;align=left;verticalAlign=middle;spacingTop=-1;spacingLeft=3;spacingRight=3;rotatable=0;labelPosition=right;points=[];portConstraint=eastwest;" parent="3TedK7BczHDGdvZgG1oG-14" vertex="1">
          <mxGeometry y="122" width="155" height="8" as="geometry" />
        </mxCell>
        <mxCell id="3TedK7BczHDGdvZgG1oG-22" value="" style="endArrow=none;html=1;rounded=0;entryX=1;entryY=0.5;entryDx=0;entryDy=0;exitX=0.5;exitY=0;exitDx=0;exitDy=0;" parent="1" source="3TedK7BczHDGdvZgG1oG-14" edge="1">
          <mxGeometry width="50" height="50" relative="1" as="geometry">
            <mxPoint x="-52.500000000002046" y="251" as="sourcePoint" />
            <mxPoint x="-400" y="251" as="targetPoint" />
          </mxGeometry>
        </mxCell>
        <mxCell id="3TedK7BczHDGdvZgG1oG-23" value="" style="endArrow=none;html=1;rounded=0;exitX=1;exitY=0.5;exitDx=0;exitDy=0;entryX=0.5;entryY=0;entryDx=0;entryDy=0;" parent="1" source="3TedK7BczHDGdvZgG1oG-17" target="3TedK7BczHDGdvZgG1oG-1" edge="1">
          <mxGeometry width="50" height="50" relative="1" as="geometry">
            <mxPoint x="200" y="327.5" as="sourcePoint" />
            <mxPoint x="197.5" y="412" as="targetPoint" />
          </mxGeometry>
        </mxCell>
        <mxCell id="3TedK7BczHDGdvZgG1oG-39" value="MLD" style="whiteSpace=wrap;html=1;" parent="1" vertex="1">
          <mxGeometry x="-320" y="40" width="120" height="60" as="geometry" />
        </mxCell>
      </root>
    </mxGraphModel>
  </diagram>
</mxfile>
